<?xml version="1.0" encoding="utf-8"?>
<!-- Generator: Adobe Illustrator 18.1.1, SVG Export Plug-In . SVG Version: 6.00 Build 0)  -->
<svg version="1.1" xmlns="http://www.w3.org/2000/svg" xmlns:xlink="http://www.w3.org/1999/xlink" x="0px" y="0px"
	 viewBox="0 0 216 216" enable-background="new 0 0 216 216" xml:space="preserve">
<g id="Layer_1" display="none">
	<rect x="-0.8" y="-0.8" fill="#7F9EAD" width="217.7" height="217.7"/>
	<g display="inline">
		<g>
			<path fill="#FFFFFF" d="M99.4,87.7h66.5c-6.9-19.6-23.5-34.7-44-39.5L99.4,87.7z"/>
			<path fill="#FFFFFF" d="M63.7,65.5l22.6,39.8l32.8-57.6c-3.6-0.7-7.3-1-11.1-1C90.6,46.6,74.9,53.8,63.7,65.5z"/>
			<path fill="#FFFFFF" d="M46.6,108c0,6.2,0.9,12.1,2.6,17.7h45.6l-33-58.2C52.3,78.4,46.6,92.5,46.6,108z"/>
			<path fill="#FFFFFF" d="M50.1,128.5c6.9,19.5,23.3,34.5,43.7,39.3l22.7-39.3H50.1z"/>
			<path fill="#FFFFFF" d="M96.6,168.3c3.7,0.7,7.5,1.1,11.4,1.1c17.7,0,33.6-7.5,44.8-19.4L130,110.5L96.6,168.3z"/>
			<path fill="#FFFFFF" d="M121.6,90.4l33.1,57.5c9.2-10.7,14.7-24.6,14.7-39.9c0-6.1-0.9-12-2.6-17.6H121.6z"/>
		</g>
		<g>
			<path fill-rule="evenodd" clip-rule="evenodd" d="M148.6,176.5c-1.3,0.2-2.3,0.6-3.5,1.3l-2.5,1.4l8,14.6l2.5-1.4
				c1.3-0.7,2.3-1.4,3.1-2.4c1.8-2.3,2-5.5,0.1-8.9C154.5,177.6,151.6,176.1,148.6,176.5z"/>
			<path fill-rule="evenodd" clip-rule="evenodd" d="M28.1,123.6c1.1-0.6,1.9-0.8,1.9-0.8l0-0.1c0,0-0.9,0.1-2.1,0l-7-1l1,5.4
				L28.1,123.6z"/>
			<path fill-rule="evenodd" clip-rule="evenodd" d="M123.8,185.9c-0.7-0.2-1.6-0.2-2.7,0l-3.2,0.5l1.3,7.5l3.9-0.7
				c2.3-0.4,3.5-2,3.1-4.5C126,187.3,125.2,186.2,123.8,185.9z"/>
			<path fill-rule="evenodd" clip-rule="evenodd" d="M177.9,66.3c-0.8,0.9-1.6,1.4-1.6,1.4l0.1,0.1c0,0,0.8-0.4,2-0.7l6.9-1.4
				l-2.8-4.7L177.9,66.3z"/>
			<path fill-rule="evenodd" clip-rule="evenodd" d="M95,186.3L95,186.3c-0.1,0-0.3,0.9-0.9,1.9l-3.3,6.2l5.4,0.9l-1.1-7
				C94.9,187.2,95,186.3,95,186.3z"/>
			<path fill-rule="evenodd" clip-rule="evenodd" d="M201.4,54.1C171.6,2.5,105.7-15.2,54.1,14.6C2.5,44.4-15.2,110.3,14.6,161.9
				c29.8,51.6,95.8,69.3,147.4,39.5C213.5,171.6,231.2,105.7,201.4,54.1z M202.9,77.8l3.9,17.6l-3.2,0.7l-0.6-2.8l-16.7,3.7l0.6,2.8
				l-3.2,0.7L180,83.4l6-1.3l0.8,3.6l-2.5,0.6l1.4,6.5l6.3-1.4l-1.7-7.6l3.4-0.8l1.7,7.6l6.5-1.4l-1.5-7l-2.6,0.6l-0.8-3.6
				L202.9,77.8z M187.5,47.6l4.5,7.7l-2.8,1.7l-1.2-2l-3.1,3.5l3.8,6.4l4.6-1l-1.2-2l2.8-1.7l4.5,7.6l-2.8,1.7l-1.1-1.9l-21.2,4.2
				l-2.5-4.3l14-16.4l-1.1-1.9L187.5,47.6z M159.4,47.9l11.3-12.5l-2.1-1.9l2.2-2.4l7.5,6.7l-2.2,2.4l-2.1-1.9l-11.3,12.5l3.3,3
				l2.4-2.6l2.7,2.5l-4.7,5.2L151,45l4.7-5.2l2.7,2.5l-2.4,2.6L159.4,47.9z M139.7,35.6l2.5,1.3l7.8-15.2l-2.5-1.3l1.5-2.9l8.9,4.6
				l-1.5,2.9l-2.5-1.3L146.1,39l2.5,1.3l-1.5,2.9l-8.9-4.6L139.7,35.6z M113,28.4l2.1,0.5l11.3-18.4l4.4,0.9l2.8,21.4l2.1,0.5
				l-0.7,3.2l-9-1.9l0.7-3.2l2.4,0.5l-1.5-14.1c-0.1-1,0.1-2.2,0.1-2.2l-0.1,0c0,0-0.3,1.1-0.9,2l-7.1,12.3l2.4,0.5l-0.7,3.2l-9-1.9
				L113,28.4z M106.6,8.4l0.3,3.2l-2.8,0.3l1.8,17l2.8-0.3l0.3,3.3l-17.4,1.8l-0.6-6.1l3.7-0.4l0.3,2.6l6.6-0.7l-0.7-6.5l-7.7,0.8
				l-0.4-3.5l7.7-0.8l-0.7-6.6l-7.1,0.7L93,16l-3.7,0.4l-0.6-6.1L106.6,8.4z M65.5,27.2l0-8.1l6.3,5l7.7-2.5l-2.9,7.5l4.7,6.5
				l-8-0.4l-4.8,6.5l-2.1-7.8l-7.7-2.5L65.5,27.2z M37.9,37.3c2.8-2.8,7-4.5,9.5-2l1.9,1.9L46.5,40l-1.2-1.2
				c-1.1-1.1-3.1-0.4-4.7,1.2c-1.7,1.7-2.2,3.6-0.8,5c1.7,1.7,4.1,0.3,6.8-0.8c3.1-1.4,6.3-2.6,9.3,0.4c3.4,3.4,1.9,7.4-1,10.3
				c-2.6,2.6-6.3,4.3-8.2,2.3L44.4,55l2.8-2.8l1.1,1.1c0.8,0.8,2.5,0.1,3.8-1.2c1.4-1.4,1.9-3.1,0.7-4.3c-1.5-1.5-3.6-0.5-6,0.6
				c-3.4,1.6-6.9,3.1-10,0C33.4,44.9,34.7,40.4,37.9,37.3z M18.9,63.4c3.3-6.4,10.5-8.5,16.6-5.3c6.2,3.2,8.3,10.3,5.2,16.4
				c-1.3,2.5-5.1,7.7-8.4,6l-2.8-1.5l1.8-3.5l1.6,0.8c1.6,0.8,3.5-1.7,4.4-3.4c2.1-4.1,0.8-8.5-3.7-10.8c-4.7-2.4-9.4-1-11.5,3.2
				c-0.7,1.3-1.9,4.8-0.3,5.6l1.6,0.8l-1.8,3.5l-2.9-1.5C15.7,72.3,17.4,66.3,18.9,63.4z M8.7,101.7c0.3-1.9,0.8-2.5,2.2-3l6.5-2.4
				c1-0.4,1.3-0.7,1.5-2.1l0.3-2.1l-5.7-0.8l-0.4,2.7l-3.2-0.5l1.4-9.8l3.2,0.5l-0.4,2.8l16.9,2.5l0.4-2.8l3.3,0.5l-1.5,10.3
				c-0.3,1.7-0.6,3.1-1.1,4.4c-1.2,2.5-3.6,3.9-6.9,3.4c-3.3-0.5-5.3-2.5-5.8-5.4l-0.1,0c0,0-0.5,0.6-1.4,1l-5.3,2
				c-0.6,0.2-0.9,0.7-1,1.5l-0.1,0.8l-3.2-0.5L8.7,101.7z M12.7,137.9l-1.7-8.7l3.2-0.6l0.4,2.3l4.1-2.3l-1.4-7.3l-4.6-0.6l0.4,2.3
				l-3.2,0.6l-1.6-8.7l3.2-0.6l0.4,2.1l21.3,3.2l0.9,4.9l-18.7,10.8l0.4,2.1L12.7,137.9z M31.8,156.8c-0.9-0.8-1.5-1.8-2.2-2.9
				l-2-3.7l-4.5,2.5l1.4,2.5l-2.9,1.6l-4.9-8.8l2.9-1.6l1.4,2.5l14.9-8.3l-1.4-2.5l2.9-1.6l5.5,9.9c0.7,1.2,1.3,2.5,1.4,3.8
				c0.3,2.8-1.2,5.5-4.1,7.1C37.3,158.9,34,158.7,31.8,156.8z M50.5,177.3l-4.8,6.5l-2.1-7.8l-7.7-2.5l6.7-4.4l0-8.1l6.3,5l7.7-2.5
				l-2.9,7.5l4.7,6.5L50.5,177.3z M69.5,196l-1.5,2.9l-9-4.5l1.5-2.9l2.6,1.3l3-5.9l-0.9-12.2l-1.9-1l1.5-2.9l7.9,3.9l-1.5,2.9
				l-2.1-1l0.4,7.1c0,0.7,0,1.2,0,1.2l0.1,0c0,0,0.4-0.4,1-0.7l6-3.9l-2-1l1.5-2.9l7.8,3.9l-1.5,2.9l-1.9-1L70,188.8l-3,5.9
				L69.5,196z M103.3,207.8l-8.8-1.5l0.5-3.2l2.3,0.4l-0.7-4.6l-7.4-1.2l-2.2,4.1l2.3,0.4l-0.5,3.2l-8.7-1.5l0.5-3.2l2.1,0.4
				l10.4-18.9l4.9,0.8l3.6,21.3l2.1,0.4L103.3,207.8z M50.4,141.3C32,109.4,42.9,68.7,74.7,50.4c31.8-18.4,72.5-7.5,90.9,24.4
				c18.4,31.8,7.5,72.5-24.4,90.9C109.4,184,68.7,173.1,50.4,141.3z M132.3,204.5c-1.9,0.3-2.6,0-3.5-1.2l-4.3-5.5
				c-0.6-0.8-1.1-1-2.5-0.8l-2.1,0.4l1,5.7l2.7-0.5l0.5,3.2l-9.8,1.6l-0.5-3.2l2.8-0.5l-2.8-16.8l-2.8,0.5l-0.5-3.2l10.3-1.7
				c1.7-0.3,3.1-0.4,4.5-0.3c2.7,0.4,4.8,2.2,5.4,5.5c0.5,3.2-0.8,5.8-3.3,7.2l0,0.1c0,0,0.7,0.2,1.4,1l3.5,4.4
				c0.4,0.5,0.9,0.6,1.7,0.5l0.8-0.1l0.5,3.2L132.3,204.5z M159.3,192.2c-1.1,1.3-2.5,2.2-4.2,3.1l-9,4.9l-1.6-2.9l2.5-1.4l-8.2-15
				l-2.5,1.4l-1.6-2.9l9-4.9c1.7-0.9,3-1.6,4.6-1.9c4.7-1,9.3,1.1,12.1,6.2C163,183.8,162.5,188.7,159.3,192.2z M174.2,173l-4.8,6.5
				l-2.1-7.8l-7.7-2.5l6.7-4.4l0-8l6.3,5l7.7-2.5l-2.9,7.5l4.7,6.5L174.2,173z M199.1,148.2c-3,6.5-10.1,9-16.3,6.1
				c-6.4-2.9-8.8-9.9-6-16.1c1.2-2.6,4.7-8,8.1-6.4l2.9,1.3l-1.6,3.6l-1.7-0.8c-1.6-0.7-3.4,1.9-4.2,3.6c-1.9,4.1-0.4,8.5,4.2,10.6
				c4.8,2.2,9.4,0.5,11.4-3.7c0.6-1.3,1.7-4.9,0-5.6l-1.7-0.8l1.6-3.6l2.9,1.3C202,139.2,200.5,145.2,199.1,148.2z M203.2,120.2
				l0.3-2.7l3.2,0.3l-1,9.9l-3.2-0.3l0.3-2.8l-17-1.6l-0.3,2.8l-3.3-0.3l1-10.4c0.2-1.7,0.4-3.1,0.9-4.4c1.1-2.5,3.4-4.1,6.7-3.7
				c3.3,0.3,5.4,2.3,6.1,5.1l0.1,0c0,0,0.4-0.7,1.3-1l5.2-2.2c0.6-0.3,0.8-0.7,0.9-1.5l0.1-0.8l3.2,0.3l-0.3,2.8
				c-0.2,2-0.6,2.5-2.1,3.1l-6.4,2.8c-0.9,0.4-1.3,0.8-1.4,2.2l-0.2,2.2L203.2,120.2z"/>
			<path fill-rule="evenodd" clip-rule="evenodd" d="M190.8,111.2c-1.5-0.1-2.8,0.3-3.4,1.5c-0.4,0.6-0.6,1.5-0.7,2.6l-0.3,3.2
				l7.6,0.7l0.4-3.9C194.5,113.1,193.3,111.5,190.8,111.2z"/>
			<path fill-rule="evenodd" clip-rule="evenodd" d="M39.6,147.7l-1.8-3.2l-7.2,4l1.8,3.2c0.5,0.9,1,1.5,1.6,1.9
				c1.2,0.8,2.7,0.7,4.2-0.1c1.4-0.8,2.2-2,2.2-3.2C40.4,149.4,40.2,148.6,39.6,147.7z"/>
			<path fill-rule="evenodd" clip-rule="evenodd" d="M25.4,100.7c1.5,0.2,2.8-0.2,3.5-1.4c0.4-0.6,0.7-1.5,0.8-2.6l0.5-3.2l-7.5-1.1
				l-0.6,3.9C21.8,98.7,22.9,100.3,25.4,100.7z"/>
		</g>
	</g>
</g>
<g id="Layer_2">
	<rect x="-43.6" y="-14.2" display="none" fill-rule="evenodd" clip-rule="evenodd" fill="#FFF200" width="277.4" height="289.9"/>
	<g>
		<g>
			<path fill="#FFFFFF" d="M165.9,87.7H99.4l22.5-39.5C142.5,52.9,159.1,68,165.9,87.7z"/>
			<path fill="#FFFFFF" d="M119.1,47.6l-32.8,57.6L63.7,65.5C74.9,53.8,90.6,46.6,108,46.6C111.8,46.6,115.5,47,119.1,47.6z"/>
			<path fill="#FFFFFF" d="M94.8,125.7H49.2c-1.7-5.6-2.6-11.6-2.6-17.7c0-15.5,5.7-29.6,15.2-40.4L94.8,125.7z"/>
			<path fill="#FFFFFF" d="M116.5,128.5l-22.7,39.3C73.4,162.9,57,148,50.1,128.5H116.5z"/>
			<path fill="#FFFFFF" d="M152.8,150c-11.2,11.9-27.1,19.4-44.8,19.4c-3.9,0-7.7-0.4-11.4-1.1l33.4-57.8L152.8,150z"/>
			<path fill="#FFFFFF" d="M169.4,108c0,15.2-5.5,29.1-14.7,39.9l-33.1-57.5h45.3C168.5,96,169.4,101.9,169.4,108z"/>
		</g>
		<g>
			<path fill-rule="evenodd" clip-rule="evenodd" d="M156.3,190c-0.8,1-1.8,1.7-3.1,2.4l-2.5,1.4l-8-14.6l2.5-1.4
				c1.2-0.7,2.2-1.1,3.5-1.3c2.9-0.4,5.8,1.1,7.8,4.6C158.2,184.5,158.1,187.7,156.3,190z"/>
			<path fill-rule="evenodd" clip-rule="evenodd" d="M30,122.8c0,0-0.9,0.2-1.9,0.8l-6.2,3.4l-1-5.4l7,1
				C29.1,122.7,30,122.7,30,122.8L30,122.8z"/>
			<path fill-rule="evenodd" clip-rule="evenodd" d="M123.1,193.3l-3.9,0.6l-1.3-7.5l3.2-0.5c1.1-0.2,2-0.2,2.7,0
				c1.4,0.3,2.1,1.4,2.4,2.9C126.6,191.3,125.4,192.9,123.1,193.3z"/>
			<path fill-rule="evenodd" clip-rule="evenodd" d="M185.3,65.7l-6.9,1.4c-1.2,0.3-2,0.7-2,0.7l0-0.1c0,0,0.7-0.5,1.6-1.4l4.6-5.3
				L185.3,65.7z"/>
			<path fill-rule="evenodd" clip-rule="evenodd" d="M96.2,195.3l-5.4-0.9l3.3-6.2c0.5-1.1,0.8-2,0.8-2l0.1,0c0,0-0.1,0.9,0.1,2.1
				L96.2,195.3z"/>
			<path fill-rule="evenodd" clip-rule="evenodd" d="M201.4,54.1C171.6,2.5,105.7-15.2,54.1,14.6C2.5,44.4-15.2,110.3,14.6,161.9
				c29.8,51.6,95.8,69.3,147.4,39.5C213.5,171.6,231.2,105.7,201.4,54.1z M202.9,77.8l3.9,17.6l-3.2,0.7l-0.6-2.8l-16.7,3.7l0.6,2.8
				l-3.2,0.7L180,83.4l6-1.3l0.8,3.6l-2.5,0.5l1.4,6.5l6.3-1.4l-1.7-7.6l3.4-0.8l1.7,7.6l6.5-1.4l-1.5-7l-2.6,0.6l-0.8-3.6
				L202.9,77.8z M187.5,47.6l4.5,7.7l-2.8,1.7l-1.2-2l-3.1,3.5l3.8,6.4l4.6-1l-1.2-2l2.8-1.6l4.5,7.6l-2.8,1.6l-1.1-1.9l-21.2,4.2
				l-2.5-4.3l14-16.4l-1.1-1.9L187.5,47.6z M159.4,47.9l11.3-12.5l-2.1-1.9l2.2-2.4l7.5,6.7l-2.2,2.4l-2.1-1.9l-11.3,12.5l3.3,3
				l2.4-2.6l2.8,2.5l-4.7,5.2L151,45l4.7-5.2l2.7,2.5l-2.4,2.7L159.4,47.9z M139.7,35.6l2.5,1.3l7.8-15.2l-2.5-1.3l1.5-2.9l8.9,4.6
				l-1.5,2.9l-2.5-1.3L146.1,39l2.5,1.3l-1.5,2.9l-8.9-4.6L139.7,35.6z M113,28.5l2.1,0.4l11.3-18.4l4.4,0.9l2.8,21.4l2.1,0.5
				l-0.7,3.2l-9-1.9l0.7-3.2l2.4,0.5l-1.5-14.1c-0.1-1,0-2.2,0-2.2l-0.1,0c0,0-0.3,1.1-0.9,2l-7.1,12.3l2.4,0.5l-0.7,3.2l-9-1.9
				L113,28.5z M106.6,8.4l0.3,3.2l-2.8,0.3l1.8,17l2.8-0.3l0.3,3.3l-17.5,1.8l-0.6-6.1l3.7-0.4l0.3,2.6l6.6-0.7l-0.7-6.5l-7.8,0.8
				l-0.4-3.5l7.7-0.8l-0.7-6.6l-7.1,0.7L93,16l-3.7,0.4l-0.6-6.1L106.6,8.4z M65.5,27.2l0-8l6.3,5l7.7-2.5l-2.9,7.5l4.7,6.5l-8-0.4
				l-4.8,6.5l-2.1-7.8l-7.6-2.5L65.5,27.2z M37.9,37.3c2.8-2.8,7-4.5,9.5-2l1.9,1.9L46.5,40l-1.2-1.2c-1.1-1.1-3.1-0.4-4.7,1.2
				c-1.7,1.7-2.2,3.6-0.8,5c1.7,1.7,4.1,0.3,6.8-0.8c3.1-1.4,6.3-2.5,9.3,0.4c3.4,3.4,1.9,7.4-1,10.3c-2.6,2.6-6.3,4.3-8.2,2.3
				L44.4,55l2.8-2.8l1.1,1.1c0.9,0.9,2.6,0,3.8-1.2c1.4-1.4,1.9-3,0.7-4.3c-1.5-1.5-3.6-0.5-6,0.6c-3.4,1.6-6.9,3.1-10-0.1
				C33.4,44.8,34.7,40.4,37.9,37.3z M18.9,63.4c3.3-6.4,10.5-8.5,16.6-5.3c6.2,3.2,8.3,10.3,5.2,16.4c-1.3,2.5-5.1,7.7-8.4,6
				L29.5,79l1.8-3.5l1.6,0.8c1.6,0.8,3.5-1.7,4.4-3.4c2.1-4,0.8-8.5-3.6-10.8c-4.7-2.5-9.4-1-11.5,3.2c-0.7,1.3-1.9,4.8-0.3,5.6
				l1.6,0.8l-1.8,3.5l-2.9-1.5C15.7,72.2,17.4,66.3,18.9,63.4z M8.7,101.7c0.3-2,0.8-2.5,2.2-3l6.5-2.4c1-0.4,1.3-0.8,1.5-2.1
				l0.3-2.1l-5.7-0.8l-0.4,2.7l-3.2-0.5l1.4-9.8l3.2,0.5l-0.4,2.8L31,89.3l0.4-2.8l3.3,0.5l-1.5,10.3c-0.3,1.7-0.6,3.1-1.2,4.4
				c-1.2,2.5-3.6,3.9-6.9,3.4c-3.3-0.5-5.3-2.5-5.8-5.4l-0.1,0c0,0-0.5,0.6-1.4,1l-5.3,2c-0.6,0.2-0.9,0.7-1,1.5l-0.1,0.8l-3.2-0.5
				L8.7,101.7z M12.7,137.9l-1.7-8.7l3.2-0.6l0.4,2.3l4.1-2.3l-1.4-7.3l-4.6-0.6l0.4,2.3l-3.2,0.6l-1.7-8.7l3.2-0.6l0.4,2.1
				l21.3,3.2l0.9,4.9l-18.7,10.8l0.4,2.1L12.7,137.9z M31.8,156.8c-0.9-0.8-1.5-1.8-2.2-3l-2.1-3.7l-4.5,2.5l1.4,2.5l-2.9,1.6
				l-4.9-8.8l2.9-1.6l1.4,2.5l14.9-8.3l-1.4-2.5l2.9-1.6l5.5,9.9c0.7,1.2,1.3,2.5,1.4,3.8c0.3,2.8-1.2,5.5-4.1,7.1
				C37.3,158.9,33.9,158.7,31.8,156.8z M50.5,177.2l-4.8,6.5l-2.1-7.8l-7.6-2.5l6.7-4.4l0-8.1l6.3,5l7.7-2.5l-2.9,7.5l4.7,6.5
				L50.5,177.2z M69.5,196l-1.5,2.9l-9-4.5l1.5-2.9l2.6,1.3l3-5.9l-1-12.2l-1.9-1l1.5-3l7.9,3.9l-1.5,3l-2-1l0.4,7.1
				c0,0.7,0,1.2,0,1.2l0.1,0c0,0,0.4-0.4,1-0.7l6-3.9l-2-1l1.5-2.9l7.8,3.9l-1.5,2.9l-1.9-1L70,188.8l-3,5.9L69.5,196z M103.3,207.8
				l-8.8-1.5l0.5-3.2l2.3,0.4l-0.7-4.6l-7.4-1.2l-2.2,4.1l2.3,0.4l-0.5,3.2l-8.7-1.5l0.5-3.2l2.1,0.3l10.3-18.9l4.9,0.8l3.6,21.3
				l2.1,0.4L103.3,207.8z M50.4,141.3C32,109.5,42.9,68.7,74.7,50.4c31.8-18.4,72.5-7.5,90.9,24.3c18.4,31.8,7.5,72.5-24.4,90.9
				C109.4,184,68.7,173.1,50.4,141.3z M132.3,204.5c-1.9,0.3-2.6,0-3.6-1.2l-4.3-5.5c-0.6-0.8-1.1-1-2.5-0.8l-2.1,0.4l1,5.7l2.7-0.5
				l0.5,3.2l-9.8,1.6l-0.5-3.2l2.8-0.5l-2.8-16.8l-2.8,0.5l-0.5-3.2l10.3-1.7c1.7-0.3,3.1-0.4,4.5-0.2c2.7,0.4,4.8,2.2,5.3,5.5
				c0.5,3.2-0.8,5.8-3.3,7.2l0,0.1c0,0,0.8,0.2,1.3,1l3.5,4.4c0.4,0.5,0.9,0.6,1.7,0.5l0.8-0.1l0.5,3.2L132.3,204.5z M159.3,192.2
				c-1.1,1.3-2.5,2.2-4.2,3.1l-9,5l-1.6-2.9l2.5-1.4l-8.2-15l-2.5,1.4l-1.6-2.9l9-4.9c1.7-0.9,3-1.6,4.6-1.9c4.7-1,9.3,1.1,12.1,6.2
				C163,183.8,162.5,188.7,159.3,192.2z M174.2,173l-4.8,6.5l-2.1-7.8l-7.7-2.5l6.7-4.4l0-8l6.3,5l7.7-2.5l-2.9,7.5l4.7,6.5
				L174.2,173z M199.1,148.2c-3,6.5-10.1,9-16.3,6.1c-6.4-2.9-8.8-9.9-6-16.1c1.2-2.6,4.7-8,8.1-6.4l2.9,1.3l-1.6,3.6l-1.7-0.8
				c-1.6-0.7-3.4,1.9-4.2,3.6c-1.9,4.1-0.4,8.5,4.2,10.6c4.8,2.2,9.4,0.5,11.4-3.7c0.6-1.3,1.7-4.8,0-5.6l-1.7-0.8l1.6-3.6l2.9,1.3
				C202,139.2,200.5,145.2,199.1,148.2z M203.2,120.2l0.3-2.7l3.2,0.3l-1,9.9l-3.2-0.3l0.3-2.8l-17-1.6l-0.3,2.8l-3.3-0.3l1-10.4
				c0.2-1.7,0.4-3.1,0.9-4.4c1.1-2.5,3.4-4,6.7-3.7c3.3,0.3,5.4,2.3,6.1,5.1h0.1c0,0,0.4-0.7,1.3-1l5.2-2.2c0.6-0.3,0.8-0.7,0.9-1.5
				l0.1-0.8l3.2,0.3l-0.3,2.8c-0.2,2-0.6,2.5-2.1,3.1l-6.4,2.8c-1,0.4-1.3,0.8-1.4,2.2l-0.2,2.2L203.2,120.2z"/>
			<path fill-rule="evenodd" clip-rule="evenodd" fill="#7F9DAC" d="M165.6,74.7C147.3,42.9,106.5,32,74.7,50.4
				C42.9,68.7,32,109.5,50.4,141.3c18.4,31.8,59.1,42.7,90.9,24.4C173.1,147.3,184,106.5,165.6,74.7z M165.9,87.7H99.4l22.5-39.5
				C142.5,52.9,159.1,68,165.9,87.7z M108,46.6c3.8,0,7.5,0.4,11.1,1l-32.8,57.6L63.7,65.5C74.9,53.8,90.6,46.6,108,46.6z M46.6,108
				c0-15.5,5.7-29.6,15.2-40.4l33,58.2H49.2C47.5,120.1,46.6,114.2,46.6,108z M50.1,128.5h66.4l-22.7,39.3
				C73.4,162.9,57,148,50.1,128.5z M108,169.4c-3.9,0-7.7-0.4-11.4-1.1l33.4-57.8l22.8,39.5C141.6,161.9,125.7,169.4,108,169.4z
				 M121.5,90.4h45.3c1.7,5.6,2.6,11.5,2.6,17.6c0,15.2-5.5,29.1-14.7,39.9L121.5,90.4z"/>
			<polygon fill-rule="evenodd" clip-rule="evenodd" fill="#7F9DAC" points="182.3,173.4 174.2,173 169.5,179.5 167.4,171.7 
				159.7,169.2 166.5,164.8 166.5,156.8 172.8,161.8 180.4,159.3 177.6,166.8 			"/>
			<polygon fill-rule="evenodd" clip-rule="evenodd" fill="#7F9DAC" points="58.5,177.6 50.5,177.2 45.7,183.8 43.6,176 36,173.5 
				42.7,169.1 42.7,161 49,166.1 56.7,163.6 53.8,171.1 			"/>
			<polygon fill-rule="evenodd" clip-rule="evenodd" fill="#7F9DAC" points="81.3,35.8 73.3,35.4 68.5,41.9 66.4,34.1 58.8,31.6 
				65.5,27.2 65.5,19.2 71.8,24.2 79.5,21.7 76.6,29.3 			"/>
			<path fill-rule="evenodd" clip-rule="evenodd" fill="#FFFFFF" d="M44.3,150.2c-0.1-1.3-0.7-2.6-1.4-3.8l-5.5-9.9l-2.9,1.6
				l1.4,2.5L21,148.8l-1.4-2.5l-2.9,1.6l4.9,8.8l2.9-1.6l-1.4-2.5l4.5-2.5l2.1,3.7c0.6,1.2,1.3,2.2,2.2,3c2.2,1.9,5.5,2.1,8.5,0.4
				C43.1,155.7,44.6,152.9,44.3,150.2z M38.1,153.4c-1.5,0.8-3,0.9-4.2,0.1c-0.6-0.4-1.1-1-1.6-1.9l-1.8-3.2l7.2-4l1.8,3.2
				c0.5,0.9,0.8,1.7,0.8,2.5C40.4,151.5,39.6,152.6,38.1,153.4z"/>
			<path fill-rule="evenodd" clip-rule="evenodd" fill="#FFFFFF" d="M34.2,124.4l-0.9-4.9l-21.3-3.2l-0.4-2.1l-3.2,0.6l1.7,8.7
				l3.2-0.6l-0.4-2.3l4.6,0.6l1.4,7.3l-4.1,2.3l-0.4-2.3l-3.2,0.6l1.7,8.7l3.2-0.6l-0.4-2.1L34.2,124.4z M27.9,122.6
				c1.2,0.1,2.1,0,2.1,0l0,0.1c0,0-0.9,0.2-1.9,0.8l-6.2,3.4l-1-5.4L27.9,122.6z"/>
			<path fill-rule="evenodd" clip-rule="evenodd" fill="#FFFFFF" d="M31.5,86.5L31,89.3l-16.9-2.5l0.4-2.8l-3.2-0.5l-1.4,9.8
				l3.2,0.5l0.4-2.7l5.7,0.8l-0.3,2.1c-0.2,1.3-0.6,1.7-1.5,2.1l-6.5,2.4c-1.5,0.5-1.9,1.1-2.2,3l-0.4,2.7l3.2,0.5l0.1-0.8
				c0.1-0.8,0.3-1.2,1-1.5l5.3-2c0.9-0.3,1.4-1,1.4-1l0.1,0c0.5,2.8,2.6,4.9,5.8,5.4c3.3,0.5,5.6-0.9,6.9-3.4
				c0.6-1.3,0.9-2.7,1.2-4.4L34.7,87L31.5,86.5z M29.8,96.8c-0.2,1.1-0.4,1.9-0.8,2.6c-0.7,1.2-2,1.6-3.5,1.4
				c-2.5-0.4-3.6-2.1-3.3-4.3l0.6-3.9l7.5,1.1L29.8,96.8z"/>
			<path fill-rule="evenodd" clip-rule="evenodd" fill="#FFFFFF" d="M40.7,74.5c-1.3,2.5-5.1,7.7-8.4,6L29.5,79l1.8-3.5l1.6,0.8
				c1.6,0.8,3.5-1.7,4.4-3.4c2.1-4,0.8-8.5-3.6-10.8c-4.7-2.5-9.4-1-11.5,3.2c-0.7,1.3-1.9,4.8-0.3,5.6l1.6,0.8l-1.8,3.5l-2.9-1.5
				c-3.1-1.6-1.3-7.5,0.2-10.5c3.3-6.4,10.5-8.5,16.6-5.3C41.8,61.3,43.9,68.4,40.7,74.5z"/>
			<path fill-rule="evenodd" clip-rule="evenodd" fill="#FFFFFF" d="M54.9,54.8c-2.6,2.6-6.3,4.3-8.2,2.3L44.4,55l2.8-2.8l1.1,1.1
				c0.9,0.9,2.6,0,3.8-1.2c1.4-1.4,1.9-3,0.7-4.3c-1.5-1.5-3.6-0.5-6,0.6c-3.4,1.6-6.9,3.1-10-0.1c-3.4-3.4-2.1-7.9,1.1-11
				c2.8-2.8,7-4.5,9.5-2l1.9,1.9L46.5,40l-1.2-1.2c-1.1-1.1-3.1-0.4-4.7,1.2c-1.7,1.7-2.2,3.6-0.8,5c1.7,1.7,4.1,0.3,6.8-0.8
				c3.1-1.4,6.3-2.5,9.3,0.4C59.2,47.9,57.7,52,54.9,54.8z"/>
			<polygon fill-rule="evenodd" clip-rule="evenodd" fill="#FFFFFF" points="109,31.9 91.6,33.7 90.9,27.7 94.6,27.3 94.9,29.9 
				101.5,29.2 100.8,22.7 93.1,23.5 92.7,20.1 100.5,19.2 99.8,12.6 92.7,13.4 93,16 89.3,16.4 88.6,10.3 106.6,8.4 106.9,11.6 
				104.1,11.9 105.9,28.9 108.7,28.6 			"/>
			<path fill-rule="evenodd" clip-rule="evenodd" fill="#FFFFFF" d="M135.7,33.3l-0.7,3.2l-9-1.9l0.7-3.2l2.4,0.5l-1.5-14.1
				c-0.1-1,0-2.2,0-2.2l-0.1,0c0,0-0.3,1.1-0.9,2l-7.1,12.3l2.4,0.5l-0.7,3.2l-9-1.9l0.7-3.2l2.1,0.4l11.3-18.4l4.4,0.9l2.8,21.4
				L135.7,33.3z"/>
			<polygon fill-rule="evenodd" clip-rule="evenodd" fill="#FFFFFF" points="157.9,22.2 156.5,25.1 153.9,23.8 146.1,39 148.6,40.2 
				147.1,43.2 138.2,38.6 139.7,35.6 142.2,37 150.1,21.8 147.5,20.5 149,17.6 			"/>
			<polygon fill-rule="evenodd" clip-rule="evenodd" fill="#FFFFFF" points="178.2,37.8 176.1,40.2 174,38.3 162.6,50.8 166,53.8 
				168.3,51.2 171.1,53.6 166.4,58.9 151,45 155.7,39.8 158.5,42.2 156.1,44.9 159.4,47.9 170.7,35.4 168.6,33.5 170.8,31 			"/>
			<path fill-rule="evenodd" clip-rule="evenodd" fill="#FFFFFF" d="M194.9,60.2l-2.8,1.6l1.2,2l-4.6,1l-3.8-6.4l3.1-3.5l1.2,2
				l2.8-1.7l-4.5-7.7l-2.8,1.6l1.1,1.9l-14,16.4l2.5,4.3l21.2-4.2l1.1,1.9l2.8-1.6L194.9,60.2z M178.4,67.1c-1.2,0.3-2,0.7-2,0.7
				l0-0.1c0,0,0.7-0.5,1.6-1.4l4.6-5.3l2.8,4.7L178.4,67.1z"/>
			<polygon fill-rule="evenodd" clip-rule="evenodd" fill="#FFFFFF" points="206.8,95.5 203.6,96.2 203,93.4 186.3,97.1 187,99.8 
				183.7,100.6 180,83.4 185.9,82.1 186.7,85.8 184.2,86.3 185.6,92.8 191.9,91.4 190.3,83.8 193.7,83 195.4,90.6 201.9,89.2 
				200.3,82.2 197.7,82.8 196.9,79.2 202.9,77.8 			"/>
			<path fill-rule="evenodd" clip-rule="evenodd" fill="#FFFFFF" d="M199.1,115.3l6.4-2.8c1.4-0.6,1.9-1.1,2.1-3.1l0.3-2.8l-3.2-0.3
				l-0.1,0.8c-0.1,0.8-0.3,1.2-0.9,1.5l-5.2,2.2c-0.9,0.4-1.3,1-1.3,1H197c-0.7-2.8-2.8-4.8-6.1-5.1c-3.3-0.3-5.6,1.2-6.7,3.7
				c-0.5,1.3-0.8,2.7-0.9,4.4l-1,10.4l3.3,0.3l0.3-2.8l17,1.6l-0.3,2.8l3.2,0.3l1-9.9l-3.2-0.3l-0.3,2.7l-5.8-0.5l0.2-2.2
				C197.8,116.1,198.1,115.7,199.1,115.3z M194.3,115.4l-0.4,3.9l-7.6-0.7l0.3-3.2c0.1-1.1,0.3-2,0.7-2.6c0.7-1.2,1.9-1.7,3.4-1.5
				C193.3,111.5,194.5,113.1,194.3,115.4z"/>
			<path fill-rule="evenodd" clip-rule="evenodd" fill="#FFFFFF" d="M199.1,148.2c-3,6.5-10.1,9-16.3,6.1c-6.4-2.9-8.8-9.9-6-16.1
				c1.2-2.6,4.7-8,8.1-6.4l2.9,1.3l-1.6,3.6l-1.7-0.8c-1.6-0.7-3.4,1.9-4.2,3.6c-1.9,4.1-0.4,8.5,4.2,10.6c4.8,2.2,9.4,0.5,11.4-3.7
				c0.6-1.3,1.7-4.8,0-5.6l-1.7-0.8l1.6-3.6l2.9,1.3C202,139.2,200.5,145.2,199.1,148.2z"/>
			<path fill-rule="evenodd" clip-rule="evenodd" fill="#FFFFFF" d="M160.3,178.9c-2.8-5.1-7.5-7.2-12.1-6.2c-1.6,0.3-2.9,1-4.6,1.9
				l-9,4.9l1.6,2.9l2.5-1.4l8.2,15l-2.5,1.4l1.6,2.9l9-5c1.7-0.9,3.1-1.9,4.2-3.1C162.5,188.7,163,183.8,160.3,178.9z M156.3,190
				c-0.8,1-1.8,1.7-3.1,2.4l-2.5,1.4l-8-14.6l2.5-1.4c1.2-0.7,2.2-1.1,3.5-1.3c2.9-0.4,5.8,1.1,7.8,4.6
				C158.2,184.5,158.1,187.7,156.3,190z"/>
			<path fill-rule="evenodd" clip-rule="evenodd" fill="#FFFFFF" d="M134.5,200.8l-0.8,0.1c-0.8,0.1-1.3,0-1.7-0.5l-3.5-4.4
				c-0.6-0.8-1.3-1-1.3-1l0-0.1c2.5-1.4,3.9-4,3.3-7.2c-0.5-3.3-2.6-5.1-5.3-5.5c-1.4-0.2-2.8,0-4.5,0.2l-10.3,1.7l0.5,3.2l2.8-0.5
				l2.8,16.8l-2.8,0.5l0.5,3.2l9.8-1.6l-0.5-3.2l-2.7,0.5l-1-5.7l2.1-0.4c1.3-0.2,1.8,0,2.5,0.8l4.3,5.5c1,1.2,1.6,1.5,3.6,1.2
				l2.7-0.5L134.5,200.8z M123.1,193.3l-3.9,0.6l-1.3-7.5l3.2-0.5c1.1-0.2,2-0.2,2.7,0c1.4,0.3,2.1,1.4,2.4,2.9
				C126.6,191.3,125.4,192.9,123.1,193.3z"/>
			<path fill-rule="evenodd" clip-rule="evenodd" fill="#FFFFFF" d="M101.7,204.2L98,182.9l-4.9-0.8L82.8,201l-2.1-0.3l-0.5,3.2
				l8.7,1.5l0.5-3.2l-2.3-0.4l2.2-4.1l7.4,1.2l0.7,4.6l-2.3-0.4l-0.5,3.2l8.8,1.5l0.5-3.2L101.7,204.2z M90.8,194.4l3.3-6.2
				c0.5-1.1,0.8-2,0.8-2l0.1,0c0,0-0.1,0.9,0.1,2.1l1.1,7L90.8,194.4z"/>
			<path fill-rule="evenodd" clip-rule="evenodd" fill="#FFFFFF" d="M83.6,180.3l-1.5,2.9l-1.9-1L70,188.8l-3,5.9l2.5,1.3l-1.5,2.9
				l-9-4.5l1.5-2.9l2.6,1.3l3-5.9l-1-12.2l-1.9-1l1.5-3l7.9,3.9l-1.5,3l-2-1l0.4,7.1c0,0.7,0,1.2,0,1.2l0.1,0c0,0,0.4-0.4,1-0.7
				l6-3.9l-2-1l1.5-2.9L83.6,180.3z"/>
			<path fill-rule="evenodd" clip-rule="evenodd" d="M194.3,115.4l-0.4,3.9l-7.6-0.7l0.3-3.2c0.1-1.1,0.3-2,0.7-2.6
				c0.7-1.2,1.9-1.7,3.4-1.5C193.3,111.5,194.5,113.1,194.3,115.4z"/>
			<path fill-rule="evenodd" clip-rule="evenodd" d="M40.4,150.2c0,1.3-0.8,2.4-2.2,3.2c-1.5,0.8-3,0.9-4.2,0.1
				c-0.6-0.4-1.1-1-1.6-1.9l-1.8-3.2l7.2-4l1.8,3.2C40.2,148.6,40.4,149.4,40.4,150.2z"/>
			<path fill-rule="evenodd" clip-rule="evenodd" d="M30.2,93.6l-0.5,3.2c-0.2,1.1-0.4,1.9-0.8,2.6c-0.7,1.2-2,1.6-3.5,1.4
				c-2.5-0.4-3.6-2.1-3.3-4.3l0.6-3.9L30.2,93.6z"/>
		</g>
	</g>
</g>
</svg>
