<?xml version="1.0" encoding="utf-8"?>
<!-- Generator: Adobe Illustrator 18.1.0, SVG Export Plug-In . SVG Version: 6.00 Build 0)  -->
<svg version="1.1" id="Layer_1" xmlns="http://www.w3.org/2000/svg" xmlns:xlink="http://www.w3.org/1999/xlink" x="0px" y="0px"
	 viewBox="0 0 216 216" enable-background="new 0 0 216 216" xml:space="preserve">
<rect x="-0.8" y="-0.8" display="none" fill="#7F9EAD" width="217.7" height="217.7"/>
<g>
	<g>
		<path fill="#FFFFFF" d="M99.4,87.7h66.5c-6.9-19.6-23.5-34.7-44-39.5L99.4,87.7z"/>
		<path fill="#FFFFFF" d="M63.7,65.5l22.6,39.8l32.8-57.6c-3.6-0.7-7.3-1-11.1-1C90.6,46.6,74.9,53.8,63.7,65.5z"/>
		<path fill="#FFFFFF" d="M46.6,108c0,6.2,0.9,12.1,2.6,17.7h45.6l-33-58.2C52.3,78.4,46.6,92.5,46.6,108z"/>
		<path fill="#FFFFFF" d="M50.1,128.5c6.9,19.5,23.3,34.5,43.7,39.3l22.7-39.3H50.1z"/>
		<path fill="#FFFFFF" d="M96.6,168.3c3.7,0.7,7.5,1.1,11.4,1.1c17.7,0,33.6-7.5,44.8-19.4L130,110.5L96.6,168.3z"/>
		<path fill="#FFFFFF" d="M121.6,90.4l33.1,57.5c9.2-10.7,14.7-24.6,14.7-39.9c0-6.1-0.9-12-2.6-17.6H121.6z"/>
	</g>
	<g>
		<path fill-rule="evenodd" clip-rule="evenodd" d="M148.6,176.5c-1.3,0.2-2.3,0.6-3.5,1.3l-2.5,1.4l8,14.6l2.5-1.4
			c1.3-0.7,2.3-1.4,3.1-2.4c1.8-2.3,2-5.5,0.1-8.9C154.5,177.6,151.6,176.1,148.6,176.5z"/>
		<path fill-rule="evenodd" clip-rule="evenodd" d="M28.1,123.6c1.1-0.6,1.9-0.8,1.9-0.8l0-0.1c0,0-0.9,0.1-2.1,0l-7-1l1,5.4
			L28.1,123.6z"/>
		<path fill-rule="evenodd" clip-rule="evenodd" d="M123.8,185.9c-0.7-0.2-1.6-0.2-2.7,0l-3.2,0.5l1.3,7.5l3.9-0.7
			c2.3-0.4,3.5-2,3.1-4.5C126,187.3,125.2,186.2,123.8,185.9z"/>
		<path fill-rule="evenodd" clip-rule="evenodd" d="M177.9,66.3c-0.8,0.9-1.6,1.4-1.6,1.4l0.1,0.1c0,0,0.8-0.4,2-0.7l6.9-1.4
			l-2.8-4.7L177.9,66.3z"/>
		<path fill-rule="evenodd" clip-rule="evenodd" d="M95,186.3L95,186.3c-0.1,0-0.3,0.9-0.9,1.9l-3.3,6.2l5.4,0.9l-1.1-7
			C94.9,187.2,95,186.3,95,186.3z"/>
		<path fill-rule="evenodd" clip-rule="evenodd" d="M201.4,54.1C171.6,2.5,105.7-15.2,54.1,14.6C2.5,44.4-15.2,110.3,14.6,161.9
			c29.8,51.6,95.8,69.3,147.4,39.5C213.5,171.6,231.2,105.7,201.4,54.1z M202.9,77.8l3.9,17.6l-3.2,0.7l-0.6-2.8l-16.7,3.7l0.6,2.8
			l-3.2,0.7L180,83.4l6-1.3l0.8,3.6l-2.5,0.6l1.4,6.5l6.3-1.4l-1.7-7.6l3.4-0.8l1.7,7.6l6.5-1.4l-1.5-7l-2.6,0.6l-0.8-3.6
			L202.9,77.8z M187.5,47.6l4.5,7.7l-2.8,1.7l-1.2-2l-3.1,3.5l3.8,6.4l4.6-1l-1.2-2l2.8-1.7l4.5,7.6l-2.8,1.7l-1.1-1.9l-21.2,4.2
			l-2.5-4.3l14-16.4l-1.1-1.9L187.5,47.6z M159.4,47.9l11.3-12.5l-2.1-1.9l2.2-2.4l7.5,6.7l-2.2,2.4l-2.1-1.9l-11.3,12.5l3.3,3
			l2.4-2.6l2.7,2.5l-4.7,5.2L151,45l4.7-5.2l2.7,2.5l-2.4,2.6L159.4,47.9z M139.7,35.6l2.5,1.3l7.8-15.2l-2.5-1.3l1.5-2.9l8.9,4.6
			l-1.5,2.9l-2.5-1.3L146.1,39l2.5,1.3l-1.5,2.9l-8.9-4.6L139.7,35.6z M113,28.4l2.1,0.5l11.3-18.4l4.4,0.9l2.8,21.4l2.1,0.5
			l-0.7,3.2l-9-1.9l0.7-3.2l2.4,0.5l-1.5-14.1c-0.1-1,0.1-2.2,0.1-2.2l-0.1,0c0,0-0.3,1.1-0.9,2l-7.1,12.3l2.4,0.5l-0.7,3.2l-9-1.9
			L113,28.4z M106.6,8.4l0.3,3.2l-2.8,0.3l1.8,17l2.8-0.3l0.3,3.3l-17.4,1.8l-0.6-6.1l3.7-0.4l0.3,2.6l6.6-0.7l-0.7-6.5l-7.7,0.8
			l-0.4-3.5l7.7-0.8l-0.7-6.6l-7.1,0.7L93,16l-3.7,0.4l-0.6-6.1L106.6,8.4z M65.5,27.2l0-8.1l6.3,5l7.7-2.5l-2.9,7.5l4.7,6.5l-8-0.4
			l-4.8,6.5l-2.1-7.8l-7.7-2.5L65.5,27.2z M37.9,37.3c2.8-2.8,7-4.5,9.5-2l1.9,1.9L46.5,40l-1.2-1.2c-1.1-1.1-3.1-0.4-4.7,1.2
			c-1.7,1.7-2.2,3.6-0.8,5c1.7,1.7,4.1,0.3,6.8-0.8c3.1-1.4,6.3-2.6,9.3,0.4c3.4,3.4,1.9,7.4-1,10.3c-2.6,2.6-6.3,4.3-8.2,2.3
			L44.4,55l2.8-2.8l1.1,1.1c0.8,0.8,2.5,0.1,3.8-1.2c1.4-1.4,1.9-3.1,0.7-4.3c-1.5-1.5-3.6-0.5-6,0.6c-3.4,1.6-6.9,3.1-10,0
			C33.4,44.9,34.7,40.4,37.9,37.3z M18.9,63.4c3.3-6.4,10.5-8.5,16.6-5.3c6.2,3.2,8.3,10.3,5.2,16.4c-1.3,2.5-5.1,7.7-8.4,6
			l-2.8-1.5l1.8-3.5l1.6,0.8c1.6,0.8,3.5-1.7,4.4-3.4c2.1-4.1,0.8-8.5-3.7-10.8c-4.7-2.4-9.4-1-11.5,3.2c-0.7,1.3-1.9,4.8-0.3,5.6
			l1.6,0.8l-1.8,3.5l-2.9-1.5C15.7,72.3,17.4,66.3,18.9,63.4z M8.7,101.7c0.3-1.9,0.8-2.5,2.2-3l6.5-2.4c1-0.4,1.3-0.7,1.5-2.1
			l0.3-2.1l-5.7-0.8l-0.4,2.7l-3.2-0.5l1.4-9.8l3.2,0.5l-0.4,2.8l16.9,2.5l0.4-2.8l3.3,0.5l-1.5,10.3c-0.3,1.7-0.6,3.1-1.1,4.4
			c-1.2,2.5-3.6,3.9-6.9,3.4c-3.3-0.5-5.3-2.5-5.8-5.4l-0.1,0c0,0-0.5,0.6-1.4,1l-5.3,2c-0.6,0.2-0.9,0.7-1,1.5l-0.1,0.8l-3.2-0.5
			L8.7,101.7z M12.7,137.9l-1.7-8.7l3.2-0.6l0.4,2.3l4.1-2.3l-1.4-7.3l-4.6-0.6l0.4,2.3l-3.2,0.6l-1.6-8.7l3.2-0.6l0.4,2.1l21.3,3.2
			l0.9,4.9l-18.7,10.8l0.4,2.1L12.7,137.9z M31.8,156.8c-0.9-0.8-1.5-1.8-2.2-2.9l-2-3.7l-4.5,2.5l1.4,2.5l-2.9,1.6l-4.9-8.8
			l2.9-1.6l1.4,2.5l14.9-8.3l-1.4-2.5l2.9-1.6l5.5,9.9c0.7,1.2,1.3,2.5,1.4,3.8c0.3,2.8-1.2,5.5-4.1,7.1
			C37.3,158.9,34,158.7,31.8,156.8z M50.5,177.3l-4.8,6.5l-2.1-7.8l-7.7-2.5l6.7-4.4l0-8.1l6.3,5l7.7-2.5l-2.9,7.5l4.7,6.5
			L50.5,177.3z M69.5,196l-1.5,2.9l-9-4.5l1.5-2.9l2.6,1.3l3-5.9l-0.9-12.2l-1.9-1l1.5-2.9l7.9,3.9l-1.5,2.9l-2.1-1l0.4,7.1
			c0,0.7,0,1.2,0,1.2l0.1,0c0,0,0.4-0.4,1-0.7l6-3.9l-2-1l1.5-2.9l7.8,3.9l-1.5,2.9l-1.9-1L70,188.8l-3,5.9L69.5,196z M103.3,207.8
			l-8.8-1.5l0.5-3.2l2.3,0.4l-0.7-4.6l-7.4-1.2l-2.2,4.1l2.3,0.4l-0.5,3.2l-8.7-1.5l0.5-3.2l2.1,0.4l10.4-18.9l4.9,0.8l3.6,21.3
			l2.1,0.4L103.3,207.8z M50.4,141.3C32,109.4,42.9,68.7,74.7,50.4c31.8-18.4,72.5-7.5,90.9,24.4c18.4,31.8,7.5,72.5-24.4,90.9
			C109.4,184,68.7,173.1,50.4,141.3z M132.3,204.5c-1.9,0.3-2.6,0-3.5-1.2l-4.3-5.5c-0.6-0.8-1.1-1-2.5-0.8l-2.1,0.4l1,5.7l2.7-0.5
			l0.5,3.2l-9.8,1.6l-0.5-3.2l2.8-0.5l-2.8-16.8l-2.8,0.5l-0.5-3.2l10.3-1.7c1.7-0.3,3.1-0.4,4.5-0.3c2.7,0.4,4.8,2.2,5.4,5.5
			c0.5,3.2-0.8,5.8-3.3,7.2l0,0.1c0,0,0.7,0.2,1.4,1l3.5,4.4c0.4,0.5,0.9,0.6,1.7,0.5l0.8-0.1l0.5,3.2L132.3,204.5z M159.3,192.2
			c-1.1,1.3-2.5,2.2-4.2,3.1l-9,4.9l-1.6-2.9l2.5-1.4l-8.2-15l-2.5,1.4l-1.6-2.9l9-4.9c1.7-0.9,3-1.6,4.6-1.9
			c4.7-1,9.3,1.1,12.1,6.2C163,183.8,162.5,188.7,159.3,192.2z M174.2,173l-4.8,6.5l-2.1-7.8l-7.7-2.5l6.7-4.4l0-8l6.3,5l7.7-2.5
			l-2.9,7.5l4.7,6.5L174.2,173z M199.1,148.2c-3,6.5-10.1,9-16.3,6.1c-6.4-2.9-8.8-9.9-6-16.1c1.2-2.6,4.7-8,8.1-6.4l2.9,1.3
			l-1.6,3.6l-1.7-0.8c-1.6-0.7-3.4,1.9-4.2,3.6c-1.9,4.1-0.4,8.5,4.2,10.6c4.8,2.2,9.4,0.5,11.4-3.7c0.6-1.3,1.7-4.9,0-5.6l-1.7-0.8
			l1.6-3.6l2.9,1.3C202,139.2,200.5,145.2,199.1,148.2z M203.2,120.2l0.3-2.7l3.2,0.3l-1,9.9l-3.2-0.3l0.3-2.8l-17-1.6l-0.3,2.8
			l-3.3-0.3l1-10.4c0.2-1.7,0.4-3.1,0.9-4.4c1.1-2.5,3.4-4.1,6.7-3.7c3.3,0.3,5.4,2.3,6.1,5.1l0.1,0c0,0,0.4-0.7,1.3-1l5.2-2.2
			c0.6-0.3,0.8-0.7,0.9-1.5l0.1-0.8l3.2,0.3l-0.3,2.8c-0.2,2-0.6,2.5-2.1,3.1l-6.4,2.8c-0.9,0.4-1.3,0.8-1.4,2.2l-0.2,2.2
			L203.2,120.2z"/>
		<path fill-rule="evenodd" clip-rule="evenodd" d="M190.8,111.2c-1.5-0.1-2.8,0.3-3.4,1.5c-0.4,0.6-0.6,1.5-0.7,2.6l-0.3,3.2
			l7.6,0.7l0.4-3.9C194.5,113.1,193.3,111.5,190.8,111.2z"/>
		<path fill-rule="evenodd" clip-rule="evenodd" d="M39.6,147.7l-1.8-3.2l-7.2,4l1.8,3.2c0.5,0.9,1,1.5,1.6,1.9
			c1.2,0.8,2.7,0.7,4.2-0.1c1.4-0.8,2.2-2,2.2-3.2C40.4,149.4,40.2,148.6,39.6,147.7z"/>
		<path fill-rule="evenodd" clip-rule="evenodd" d="M25.4,100.7c1.5,0.2,2.8-0.2,3.5-1.4c0.4-0.6,0.7-1.5,0.8-2.6l0.5-3.2l-7.5-1.1
			l-0.6,3.9C21.8,98.7,22.9,100.3,25.4,100.7z"/>
	</g>
</g>
</svg>
